# xmcd
#
# Track frame offsets: 
#        225
#        13125
#        22875
#        33150
#        47925
#        63261
#        77436
#        91611
#        102936
#        114636
#        125961
#
# Disc length: 1850 seconds
#
# Revision: 0
# Processed by: cddbd v1.5.1PL2 Copyright (c) Steve Scherf et al.
# Submitted via: ExactAudioCopy v0.95b3
#
DISCID=8307370b
DTITLE=Johnny Cash - Any Old Wind That Blows
DYEAR=1973
DGENRE=Country
TTITLE0=Any Old Wind That Blows
TTITLE1=Kentucky Straight
TTITLE2=The Loving Gift (w June Carter Cash)
TTITLE3=The Good Earth
TTITLE4=Best Friend
TTITLE5=Oney
TTITLE6=The Ballad Of Annie Palmer
TTITLE7=Too Little, Too Late
TTITLE8=If I Had A Hammer (w June Carter Cash)
TTITLE9=Country Trash
TTITLE10=Welcome Back Jesus
EXTD=
EXTT0=
EXTT1=
EXTT2=
EXTT3=
EXTT4=
EXTT5=
EXTT6=
EXTT7=
EXTT8=
EXTT9=
EXTT10=
PLAYORDER=
